<?xml version="1.0" encoding="UTF-8" standalone="no"?>
<!-- Created with Inkscape (http://www.inkscape.org/) -->

<svg
   xmlns:dc="http://purl.org/dc/elements/1.1/"
   xmlns:cc="http://creativecommons.org/ns#"
   xmlns:rdf="http://www.w3.org/1999/02/22-rdf-syntax-ns#"
   xmlns:svg="http://www.w3.org/2000/svg"
   xmlns="http://www.w3.org/2000/svg"
   xmlns:sodipodi="http://sodipodi.sourceforge.net/DTD/sodipodi-0.dtd"
   xmlns:inkscape="http://www.inkscape.org/namespaces/inkscape"
   width="135.46666mm"
   height="135.46666mm"
   viewBox="0 0 135.46666 135.46666"
   version="1.1"
   id="svg8"
   inkscape:version="0.92.3 (2405546, 2018-03-11)"
   sodipodi:docname="tw2rap_logo_tracciato.svg">
  <defs
     id="defs2">
    <clipPath
       clipPathUnits="userSpaceOnUse"
       id="clipPath850">
      <rect
         style="opacity:1;vector-effect:none;fill:#ffffff;fill-opacity:1;stroke:none;stroke-width:0.27020621;stroke-linecap:butt;stroke-linejoin:miter;stroke-miterlimit:4;stroke-dasharray:none;stroke-dashoffset:0;stroke-opacity:1"
         id="rect852"
         width="137.10927"
         height="162.23259"
         x="-499.52676"
         y="32.937706" />
    </clipPath>
    <clipPath
       clipPathUnits="userSpaceOnUse"
       id="clipPath96">
      <rect
         style="opacity:1;vector-effect:none;fill:#ffffff;fill-opacity:1;stroke:none;stroke-width:0.15707849;stroke-linecap:butt;stroke-linejoin:miter;stroke-miterlimit:4;stroke-dasharray:none;stroke-dashoffset:0;stroke-opacity:1"
         id="rect98"
         width="105.45536"
         height="29.482143"
         x="-38.018379"
         y="-137.52744" />
    </clipPath>
  </defs>
  <sodipodi:namedview
     id="base"
     pagecolor="#ffffff"
     bordercolor="#666666"
     borderopacity="1.0"
     inkscape:pageopacity="0.0"
     inkscape:pageshadow="2"
     inkscape:zoom="0.24748737"
     inkscape:cx="217.80388"
     inkscape:cy="-127.70019"
     inkscape:document-units="px"
     inkscape:current-layer="layer1"
     showgrid="false"
     inkscape:window-width="1680"
     inkscape:window-height="987"
     inkscape:window-x="1358"
     inkscape:window-y="-8"
     inkscape:window-maximized="1"
     fit-margin-top="0"
     fit-margin-left="0"
     fit-margin-right="0"
     fit-margin-bottom="0"
     inkscape:showpageshadow="false" />
  <metadata
     id="metadata5">
    <rdf:RDF>
      <cc:Work
         rdf:about="">
        <dc:format>image/svg+xml</dc:format>
        <dc:type
           rdf:resource="http://purl.org/dc/dcmitype/StillImage" />
        <dc:title></dc:title>
      </cc:Work>
    </rdf:RDF>
  </metadata>
  <g
     inkscape:label="Layer 1"
     inkscape:groupmode="layer"
     id="layer1"
     transform="translate(52.726021,231.69621)">
    <rect
       style="opacity:1;vector-effect:none;fill:#ffffff;fill-opacity:1;stroke:none;stroke-width:0.79615223;stroke-linecap:butt;stroke-linejoin:miter;stroke-miterlimit:4;stroke-dasharray:none;stroke-dashoffset:0;stroke-opacity:1"
       id="rect78"
       width="135.46666"
       height="135.46666"
       x="-52.726021"
       y="-231.69621"
       inkscape:export-xdpi="96"
       inkscape:export-ydpi="96" />
    <g
       id="g954"
       transform="matrix(1.2064833,0,0,1.2064833,-7.690457,32.180688)"
       inkscape:export-xdpi="96"
       inkscape:export-ydpi="96">
      <g
         aria-label="tw"
         style="font-style:normal;font-variant:normal;font-weight:600;font-stretch:normal;font-size:45.17305374px;line-height:28.23316002px;font-family:'Open Sans';-inkscape-font-specification:'Open Sans Semi-Bold';letter-spacing:0px;word-spacing:0px;fill:#1ea2f2;fill-opacity:1;stroke:none;stroke-width:1.12932622"
         id="text825-8">
        <path
           d="m -14.701568,-185.65119 h -4.011367 v 7.31803 h 4.011367 v 10.67891 c 0,4.93289 1.84306,10.6247 9.4863397,10.6247 3.9571589,0 7.0469953,-1.73465 7.0469953,-1.73465 l -2.38513686,-7.75169 c 0,0 -1.13836084,0.86732 -2.38513694,0.86732 -1.5178144,0 -2.1683062,-1.24678 -2.1683062,-3.84874 v -8.83585 h 5.85442691 v -7.31803 H -5.106813 v -10.35367 h -9.594755 z"
           style="font-style:normal;font-variant:normal;font-weight:bold;font-stretch:normal;font-size:54.20765686px;font-family:'League Spartan';-inkscape-font-specification:'League Spartan Bold';fill:#1ea2f2;fill-opacity:1;stroke-width:1.12932622"
           id="path956" />
        <path
           d="m 22.134228,-157.84267 6.396503,-14.36503 6.396504,14.36503 h 6.504919 l 14.907105,-27.80852 H 45.280897 l -6.775957,15.01552 -6.667542,-15.01552 h -6.613334 l -6.667542,15.01552 -6.775957,-15.01552 H 0.72220329 l 14.90710571,27.80852 z"
           style="font-style:normal;font-variant:normal;font-weight:bold;font-stretch:normal;font-size:54.20765686px;font-family:'League Spartan';-inkscape-font-specification:'League Spartan Bold';fill:#1ea2f2;fill-opacity:1;stroke-width:1.12932622"
           id="path958" />
      </g>
      <g
         aria-label="2RAP"
         style="font-style:normal;font-variant:normal;font-weight:600;font-stretch:normal;font-size:32.69090652px;line-height:20.4318161px;font-family:'Open Sans';-inkscape-font-specification:'Open Sans Semi-Bold';letter-spacing:0px;word-spacing:0px;fill:#444444;fill-opacity:1;stroke:none;stroke-width:0.81727266"
         id="text120">
        <path
           d="m -2.629008,-129.14439 v -4.44597 h -6.7343268 l 2.3537453,-2.94218 c 1.9287635,-2.41913 4.0209815,-4.57673 4.0209815,-7.94389 0,-4.3152 -2.9094907,-7.22469 -7.22469,-7.22469 -4.772873,0 -7.257382,3.66138 -7.355454,7.94389 h 4.609418 c 0.09807,-2.32105 1.176872,-3.30178 2.778727,-3.30178 1.4710904,0 2.5171994,0.98073 2.5171994,2.58258 0,1.50378 -1.3730181,2.97487 -2.2556726,4.08636 l -8.7938538,11.24568 z"
           style="font-style:normal;font-variant:normal;font-weight:bold;font-stretch:normal;font-family:'Glacial Indifference';-inkscape-font-specification:'Glacial Indifference Bold';fill:#444444;fill-opacity:1;stroke-width:0.81727266"
           id="path961" />
        <path
           d="m 5.5626173,-137.08828 h 0.032691 l 5.2959268,7.94389 h 6.211272 l -6.374726,-8.17273 c 2.811417,-0.68651 5.06709,-3.17102 5.06709,-6.93047 0,-4.21713 -3.203709,-7.12662 -6.7997085,-7.12662 H 5.5626173 4.3530538 0.65898132 v 22.22982 H 5.5626173 Z m 2.6152725,-10.4284 c 1.4383999,0 2.9421812,1.24225 2.9421812,3.26909 0,2.12491 -1.5037813,3.30178 -2.9421812,3.30178 H 5.5626173 v -6.57087 z"
           style="fill:#ff8900;fill-opacity:1;stroke-width:0.81727266"
           id="path963" />
        <path
           d="M 30.760156,-137.64403 H 25.13732 l 2.811418,-7.9112 z m 8.30349,8.49964 -9.02269,-22.22982 h -4.151745 l -9.022691,22.22982 h 5.263236 l 1.601855,-4.47866 h 8.466945 l 1.601854,4.47866 z"
           style="fill:#ff8900;fill-opacity:1;stroke-width:0.81727266"
           id="path965" />
        <path
           d="m 46.107005,-137.08828 h 3.432545 c 3.596,0 6.799709,-2.64797 6.799709,-7.15931 0,-4.21713 -3.203709,-7.12662 -6.799709,-7.12662 h -3.432545 -1.209563 -3.694073 v 22.22982 h 4.903636 z m 2.615273,-10.4284 c 1.4384,0 2.942181,1.24225 2.942181,3.26909 0,2.12491 -1.503781,3.30178 -2.942181,3.30178 h -2.615273 v -6.57087 z"
           style="fill:#ff8900;fill-opacity:1;stroke-width:0.81727266"
           id="path967" />
      </g>
    </g>
  </g>
</svg>
